# Blender v2.83.3 OBJ File: ''
# www.blender.org
mtllib Bowl.mtl
o Окружность
v -0.000000 -0.264526 -0.993595
v -0.193841 -0.264526 -0.974503
v -0.380232 -0.264526 -0.917962
v -0.552012 -0.264526 -0.826144
v -0.702578 -0.264526 -0.702578
v -0.826144 -0.264526 -0.552012
v -0.917962 -0.264526 -0.380232
v -0.974503 -0.264526 -0.193841
v -0.993595 -0.264526 -0.000000
v -0.974504 -0.264526 0.193841
v -0.917962 -0.264526 0.380232
v -0.826144 -0.264526 0.552012
v -0.702578 -0.264526 0.702578
v -0.552012 -0.264526 0.826144
v -0.380232 -0.264526 0.917962
v -0.193841 -0.264526 0.974504
v 0.000000 -0.264526 0.993595
v 0.193841 -0.264526 0.974503
v 0.380233 -0.264526 0.917962
v 0.552012 -0.264526 0.826144
v 0.702578 -0.264526 0.702577
v 0.826145 -0.264526 0.552011
v 0.917962 -0.264526 0.380232
v 0.974504 -0.264526 0.193840
v 0.993595 -0.264526 -0.000001
v 0.974503 -0.264526 -0.193842
v 0.917962 -0.264526 -0.380233
v 0.826143 -0.264526 -0.552013
v 0.702577 -0.264526 -0.702579
v 0.552011 -0.264526 -0.826145
v 0.380231 -0.264526 -0.917963
v 0.193840 -0.264526 -0.974504
v -0.000000 0.169490 -0.896468
v -0.000000 0.065788 -0.981760
v -0.191532 0.065788 -0.962896
v -0.174892 0.169490 -0.879242
v -0.375703 0.065788 -0.907028
v -0.343063 0.169490 -0.828228
v -0.545437 0.065788 -0.816304
v -0.498051 0.169490 -0.745385
v -0.694209 0.065788 -0.694209
v -0.633898 0.169490 -0.633898
v -0.816304 0.065788 -0.545437
v -0.745386 0.169490 -0.498051
v -0.907028 0.065788 -0.375703
v -0.828228 0.169490 -0.343063
v -0.962896 0.065788 -0.191532
v -0.879242 0.169490 -0.174892
v -0.981760 0.065788 -0.000000
v -0.896468 0.169490 -0.000000
v -0.962896 0.065788 0.191532
v -0.879242 0.169490 0.174892
v -0.907028 0.065788 0.375703
v -0.828228 0.169490 0.343063
v -0.816304 0.065788 0.545437
v -0.745386 0.169490 0.498051
v -0.694209 0.065788 0.694209
v -0.633898 0.169490 0.633898
v -0.545437 0.065788 0.816304
v -0.498051 0.169490 0.745386
v -0.375703 0.065788 0.907028
v -0.343063 0.169490 0.828228
v -0.191532 0.065788 0.962896
v -0.174892 0.169490 0.879242
v 0.000000 0.065788 0.981760
v 0.000000 0.169490 0.896468
v 0.191532 0.065788 0.962896
v 0.174893 0.169490 0.879242
v 0.375704 0.065788 0.907028
v 0.343064 0.169490 0.828228
v 0.545437 0.065788 0.816304
v 0.498051 0.169490 0.745385
v 0.694210 0.065788 0.694209
v 0.633899 0.169490 0.633898
v 0.816304 0.065788 0.545436
v 0.745386 0.169490 0.498050
v 0.907029 0.065788 0.375703
v 0.828228 0.169490 0.343063
v 0.962896 0.065788 0.191531
v 0.879242 0.169490 0.174891
v 0.981760 0.065788 -0.000001
v 0.896468 0.169490 -0.000001
v 0.962896 0.065788 -0.191533
v 0.879242 0.169490 -0.174893
v 0.907028 0.065788 -0.375704
v 0.828228 0.169490 -0.343064
v 0.816303 0.065788 -0.545438
v 0.745385 0.169490 -0.498052
v 0.694209 0.065788 -0.694210
v 0.633897 0.169490 -0.633899
v 0.545436 0.065788 -0.816305
v 0.498050 0.169490 -0.745386
v 0.375702 0.065788 -0.907029
v 0.343062 0.169490 -0.828229
v 0.191531 0.065788 -0.962896
v 0.174891 0.169490 -0.879242
v -0.000000 0.169791 -0.852072
v -0.166231 0.169791 -0.835700
v -0.326074 0.169791 -0.787212
v -0.473386 0.169791 -0.708472
v -0.602506 0.169791 -0.602506
v -0.708472 0.169791 -0.473386
v -0.787212 0.169791 -0.326074
v -0.835700 0.169791 -0.166231
v -0.852072 0.169791 -0.000000
v -0.835700 0.169791 0.166231
v -0.787212 0.169791 0.326074
v -0.708472 0.169791 0.473386
v -0.602506 0.169791 0.602506
v -0.473386 0.169791 0.708472
v -0.326074 0.169791 0.787212
v -0.166231 0.169791 0.835700
v 0.000000 0.169791 0.852072
v 0.166231 0.169791 0.835700
v 0.326074 0.169791 0.787212
v 0.473386 0.169791 0.708472
v 0.602507 0.169791 0.602506
v 0.708472 0.169791 0.473385
v 0.787212 0.169791 0.326073
v 0.835700 0.169791 0.166230
v 0.852072 0.169791 -0.000001
v 0.835700 0.169791 -0.166232
v 0.787212 0.169791 -0.326075
v 0.708472 0.169791 -0.473387
v 0.602505 0.169791 -0.602507
v 0.473385 0.169791 -0.708473
v 0.326073 0.169791 -0.787213
v 0.166230 0.169791 -0.835700
v -0.000000 -0.068596 -0.740970
v -0.144556 -0.068596 -0.726732
v -0.283557 -0.068596 -0.684567
v -0.411661 -0.068596 -0.616094
v -0.523945 -0.068596 -0.523945
v -0.616094 -0.068596 -0.411661
v -0.684567 -0.068596 -0.283557
v -0.726732 -0.068596 -0.144556
v -0.740970 -0.068596 -0.000000
v -0.726732 -0.068596 0.144556
v -0.684567 -0.068596 0.283557
v -0.616094 -0.068596 0.411661
v -0.523945 -0.068596 0.523945
v -0.411661 -0.068596 0.616094
v -0.283557 -0.068596 0.684567
v -0.144556 -0.068596 0.726732
v 0.000000 -0.068596 0.740970
v 0.144556 -0.068596 0.726732
v 0.283557 -0.068596 0.684567
v 0.411661 -0.068596 0.616094
v 0.523945 -0.068596 0.523944
v 0.616094 -0.068596 0.411660
v 0.684567 -0.068596 0.283556
v 0.726733 -0.068596 0.144555
v 0.740970 -0.068596 -0.000001
v 0.726732 -0.068596 -0.144557
v 0.684567 -0.068596 -0.283558
v 0.616094 -0.068596 -0.411662
v 0.523944 -0.068596 -0.523946
v 0.411660 -0.068596 -0.616095
v 0.283556 -0.068596 -0.684568
v 0.144555 -0.068596 -0.726733
vt 0.000000 0.000000
vt 0.000000 0.000000
vt 0.000000 0.000000
vt 0.000000 0.000000
vt 0.000000 0.000000
vt 0.000000 0.000000
vt 0.000000 0.000000
vt 0.000000 0.000000
vt 0.000000 0.000000
vt 0.000000 0.000000
vt 0.000000 0.000000
vt 0.000000 0.000000
vt 0.000000 0.000000
vt 0.000000 0.000000
vt 0.000000 0.000000
vt 0.000000 0.000000
vt 0.000000 0.000000
vt 0.000000 0.000000
vt 0.000000 0.000000
vt 0.000000 0.000000
vt 0.000000 0.000000
vt 0.000000 0.000000
vt 0.000000 0.000000
vt 0.000000 0.000000
vt 0.000000 0.000000
vt 0.000000 0.000000
vt 0.000000 0.000000
vt 0.000000 0.000000
vt 0.000000 0.000000
vt 0.000000 0.000000
vt 0.000000 0.000000
vt 0.000000 0.000000
vt 0.000000 0.000000
vt 0.000000 0.000000
vt 0.000000 0.000000
vt 0.000000 0.000000
vt 0.000000 0.000000
vt 0.000000 0.000000
vt 0.000000 0.000000
vt 0.000000 0.000000
vt 0.000000 0.000000
vt 0.000000 0.000000
vt 0.000000 0.000000
vt 0.000000 0.000000
vt 0.000000 0.000000
vt 0.000000 0.000000
vt 0.000000 0.000000
vt 0.000000 0.000000
vt 0.000000 0.000000
vt 0.000000 0.000000
vt 0.000000 0.000000
vt 0.000000 0.000000
vt 0.000000 0.000000
vt 0.000000 0.000000
vt 0.000000 0.000000
vt 0.000000 0.000000
vt 0.000000 0.000000
vt 0.000000 0.000000
vt 0.000000 0.000000
vt 0.000000 0.000000
vt 0.000000 0.000000
vt 0.000000 0.000000
vt 0.000000 0.000000
vt 0.000000 0.000000
vt 0.000000 0.000000
vt 0.000000 0.000000
vt 0.000000 0.000000
vt 0.000000 0.000000
vt 0.000000 0.000000
vt 0.000000 0.000000
vt 0.000000 0.000000
vt 0.000000 0.000000
vt 0.000000 0.000000
vt 0.000000 0.000000
vt 0.000000 0.000000
vt 0.000000 0.000000
vt 0.000000 0.000000
vt 0.000000 0.000000
vt 0.000000 0.000000
vt 0.000000 0.000000
vt 0.000000 0.000000
vt 0.000000 0.000000
vt 0.000000 0.000000
vt 0.000000 0.000000
vt 0.000000 0.000000
vt 0.000000 0.000000
vt 0.000000 0.000000
vt 0.000000 0.000000
vt 0.000000 0.000000
vt 0.000000 0.000000
vt 0.000000 0.000000
vt 0.000000 0.000000
vt 0.000000 0.000000
vt 0.000000 0.000000
vt 0.000000 0.000000
vt 0.000000 0.000000
vt 0.000000 0.000000
vt 0.000000 0.000000
vt 0.000000 0.000000
vt 0.000000 0.000000
vt 0.000000 0.000000
vt 0.000000 0.000000
vt 0.000000 0.000000
vt 0.000000 0.000000
vt 0.000000 0.000000
vt 0.000000 0.000000
vt 0.000000 0.000000
vt 0.000000 0.000000
vt 0.000000 0.000000
vt 0.000000 0.000000
vt 0.000000 0.000000
vt 0.000000 0.000000
vt 0.000000 0.000000
vt 0.000000 0.000000
vt 0.000000 0.000000
vt 0.000000 0.000000
vt 0.000000 0.000000
vt 0.000000 0.000000
vt 0.000000 0.000000
vt 0.000000 0.000000
vt 0.000000 0.000000
vt 0.000000 0.000000
vt 0.000000 0.000000
vt 0.000000 0.000000
vt 0.000000 0.000000
vt 0.000000 0.000000
vt 0.000000 0.000000
vt 0.000000 0.000000
vt 0.000000 0.000000
vt 0.000000 0.000000
vt 0.000000 0.000000
vt 0.000000 0.000000
vt 0.000000 0.000000
vt 0.000000 0.000000
vt 0.000000 0.000000
vt 0.000000 0.000000
vt 0.000000 0.000000
vt 0.000000 0.000000
vt 0.000000 0.000000
vt 0.000000 0.000000
vt 0.000000 0.000000
vt 0.000000 0.000000
vt 0.000000 0.000000
vt 0.000000 0.000000
vt 0.000000 0.000000
vt 0.000000 0.000000
vt 0.000000 0.000000
vt 0.000000 0.000000
vt 0.000000 0.000000
vt 0.000000 0.000000
vt 0.000000 0.000000
vt 0.000000 0.000000
vt 0.000000 0.000000
vt 0.000000 0.000000
vt 0.000000 0.000000
vt 0.000000 0.000000
vt 0.000000 0.000000
vt 0.000000 0.000000
vt 0.000000 0.000000
vt 0.000000 0.000000
vn 0.0000 -1.0000 0.0000
vn 0.0980 0.0356 -0.9946
vn 0.7725 0.0356 -0.6340
vn -0.2901 0.0356 0.9563
vn -0.0032 1.0000 -0.0060
vn 0.6340 0.0356 -0.7725
vn -0.0980 0.0356 0.9946
vn -0.4711 0.0356 -0.8814
vn 0.4711 0.0356 -0.8814
vn 0.0980 0.0356 0.9946
vn -0.6340 0.0356 -0.7725
vn 0.2901 0.0356 -0.9563
vn 0.2901 0.0356 0.9563
vn -0.7725 0.0356 -0.6340
vn 0.4711 0.0356 0.8814
vn -0.8814 0.0356 -0.4711
vn -0.2901 0.0356 -0.9563
vn 0.6340 0.0356 0.7725
vn -0.9563 0.0356 -0.2901
vn 0.7725 0.0356 0.6340
vn -0.9946 0.0356 -0.0980
vn 0.8814 0.0356 0.4711
vn -0.9946 0.0356 0.0980
vn 0.9563 0.0356 0.2901
vn -0.9563 0.0356 0.2901
vn 0.9946 0.0356 0.0980
vn -0.8814 0.0356 0.4711
vn 0.9946 0.0356 -0.0980
vn -0.7725 0.0356 0.6340
vn 0.9563 0.0356 -0.2901
vn -0.6340 0.0356 0.7725
vn 0.8814 0.0356 -0.4711
vn -0.4711 0.0356 0.8814
vn -0.0758 0.6334 -0.7701
vn -0.2246 0.6334 -0.7405
vn -0.3648 0.6334 -0.6825
vn -0.4909 0.6334 -0.5982
vn -0.5982 0.6334 -0.4909
vn -0.6825 0.6334 -0.3648
vn -0.7405 0.6334 -0.2246
vn -0.7701 0.6334 -0.0758
vn -0.7701 0.6334 0.0758
vn -0.7405 0.6334 0.2246
vn -0.6825 0.6334 0.3648
vn -0.5982 0.6334 0.4909
vn -0.4909 0.6334 0.5982
vn -0.3648 0.6334 0.6825
vn -0.2246 0.6334 0.7405
vn -0.0758 0.6334 0.7701
vn 0.0758 0.6334 0.7701
vn 0.2246 0.6334 0.7405
vn 0.3648 0.6334 0.6825
vn 0.4909 0.6334 0.5982
vn 0.5982 0.6334 0.4909
vn 0.6825 0.6334 0.3648
vn 0.7405 0.6334 0.2246
vn 0.7701 0.6334 0.0758
vn 0.7701 0.6334 -0.0758
vn 0.7405 0.6334 -0.2246
vn 0.6825 0.6334 -0.3648
vn 0.5982 0.6334 -0.4909
vn 0.4909 0.6334 -0.5982
vn 0.3648 0.6334 -0.6825
vn 0.2246 0.6334 -0.7405
vn 0.0758 0.6334 -0.7701
vn -0.0980 0.0356 -0.9946
vn 0.0889 0.4208 0.9028
vn -0.0053 1.0000 0.0043
vn 0.0053 1.0000 0.0043
vn 0.0032 1.0000 -0.0060
vn -0.0068 1.0000 -0.0007
vn 0.0007 1.0000 0.0068
vn 0.0065 1.0000 -0.0020
vn -0.0043 1.0000 -0.0053
vn -0.0043 1.0000 0.0053
vn 0.0060 1.0000 0.0032
vn 0.0020 1.0000 -0.0065
vn -0.0068 1.0000 0.0007
vn 0.0020 1.0000 0.0065
vn 0.0060 1.0000 -0.0032
vn 0.0007 1.0000 -0.0068
vn -0.0053 1.0000 -0.0043
vn -0.0032 1.0000 0.0060
vn 0.0065 1.0000 0.0020
vn -0.0007 1.0000 -0.0068
vn -0.0065 1.0000 0.0020
vn 0.0032 1.0000 0.0060
vn 0.0053 1.0000 -0.0043
vn -0.0060 1.0000 -0.0032
vn -0.0020 1.0000 0.0065
vn 0.0068 1.0000 0.0007
vn -0.0020 1.0000 -0.0065
vn -0.0060 1.0000 0.0032
vn 0.0043 1.0000 0.0053
vn 0.0043 1.0000 -0.0053
vn -0.0065 1.0000 -0.0020
vn -0.0007 1.0000 0.0068
vn 0.0068 1.0000 -0.0007
vn 0.0000 1.0000 -0.0000
vn -0.7013 0.4208 0.5755
vn 0.2633 0.4208 -0.8681
vn 0.2633 0.4208 0.8681
vn -0.5755 0.4208 0.7013
vn 0.0889 0.4208 -0.9028
vn 0.4276 0.4208 0.8001
vn -0.4276 0.4208 0.8001
vn -0.0889 0.4208 -0.9028
vn 0.5755 0.4208 0.7013
vn -0.2633 0.4208 0.8681
vn -0.2633 0.4208 -0.8681
vn 0.7013 0.4208 0.5755
vn -0.0889 0.4208 0.9028
vn -0.4276 0.4208 -0.8001
vn 0.8001 0.4208 0.4276
vn -0.5755 0.4208 -0.7013
vn 0.8681 0.4208 0.2633
vn -0.7013 0.4208 -0.5755
vn 0.9028 0.4208 0.0889
vn -0.8001 0.4208 -0.4276
vn 0.9028 0.4208 -0.0889
vn -0.8681 0.4208 -0.2633
vn 0.8681 0.4208 -0.2633
vn -0.9028 0.4208 -0.0889
vn 0.8001 0.4208 -0.4276
vn -0.9028 0.4208 0.0889
vn 0.7013 0.4208 -0.5755
vn -0.8681 0.4208 0.2633
vn 0.5755 0.4208 -0.7013
vn -0.8001 0.4208 0.4276
vn 0.4276 0.4208 -0.8001
usemtl None
s off
f 2/1/1 1/2/1 32/3/1 31/4/1 30/5/1 29/6/1 28/7/1 27/8/1 26/9/1 25/10/1 24/11/1 23/12/1 22/13/1 21/14/1 20/15/1 19/16/1 18/17/1 17/18/1 16/19/1 15/20/1 14/21/1 13/22/1 12/23/1 11/24/1 10/25/1 9/26/1 8/27/1 7/28/1 6/29/1 5/30/1 4/31/1 3/32/1
f 32/3/2 1/2/2 34/33/2 95/34/2
f 28/7/3 29/6/3 89/35/3 87/36/3
f 15/20/4 16/19/4 63/37/4 61/38/4
f 38/39/5 40/40/5 100/41/5 99/42/5
f 29/6/6 30/5/6 91/43/6 89/35/6
f 16/19/7 17/18/7 65/44/7 63/37/7
f 3/32/8 4/31/8 39/45/8 37/46/8
f 30/5/9 31/4/9 93/47/9 91/43/9
f 17/18/10 18/17/10 67/48/10 65/44/10
f 4/31/11 5/30/11 41/49/11 39/45/11
f 31/4/12 32/3/12 95/34/12 93/47/12
f 18/17/13 19/16/13 69/50/13 67/48/13
f 5/30/14 6/29/14 43/51/14 41/49/14
f 19/16/15 20/15/15 71/52/15 69/50/15
f 6/29/16 7/28/16 45/53/16 43/51/16
f 2/1/17 3/32/17 37/46/17 35/54/17
f 20/15/18 21/14/18 73/55/18 71/52/18
f 7/28/19 8/27/19 47/56/19 45/53/19
f 21/14/20 22/13/20 75/57/20 73/55/20
f 8/27/21 9/26/21 49/58/21 47/56/21
f 22/13/22 23/12/22 77/59/22 75/57/22
f 9/26/23 10/25/23 51/60/23 49/58/23
f 23/12/24 24/11/24 79/61/24 77/59/24
f 10/25/25 11/24/25 53/62/25 51/60/25
f 24/11/26 25/10/26 81/63/26 79/61/26
f 11/24/27 12/23/27 55/64/27 53/62/27
f 25/10/28 26/9/28 83/65/28 81/63/28
f 12/23/29 13/22/29 57/66/29 55/64/29
f 26/9/30 27/8/30 85/67/30 83/65/30
f 13/22/31 14/21/31 59/68/31 57/66/31
f 27/8/32 28/7/32 87/36/32 85/67/32
f 14/21/33 15/20/33 61/38/33 59/68/33
f 36/69/34 33/70/34 34/33/34 35/54/34
f 38/39/35 36/69/35 35/54/35 37/46/35
f 40/40/36 38/39/36 37/46/36 39/45/36
f 42/71/37 40/40/37 39/45/37 41/49/37
f 44/72/38 42/71/38 41/49/38 43/51/38
f 46/73/39 44/72/39 43/51/39 45/53/39
f 48/74/40 46/73/40 45/53/40 47/56/40
f 50/75/41 48/74/41 47/56/41 49/58/41
f 52/76/42 50/75/42 49/58/42 51/60/42
f 54/77/43 52/76/43 51/60/43 53/62/43
f 56/78/44 54/77/44 53/62/44 55/64/44
f 58/79/45 56/78/45 55/64/45 57/66/45
f 60/80/46 58/79/46 57/66/46 59/68/46
f 62/81/47 60/80/47 59/68/47 61/38/47
f 64/82/48 62/81/48 61/38/48 63/37/48
f 66/83/49 64/82/49 63/37/49 65/44/49
f 68/84/50 66/83/50 65/44/50 67/48/50
f 70/85/51 68/84/51 67/48/51 69/50/51
f 72/86/52 70/85/52 69/50/52 71/52/52
f 74/87/53 72/86/53 71/52/53 73/55/53
f 76/88/54 74/87/54 73/55/54 75/57/54
f 78/89/55 76/88/55 75/57/55 77/59/55
f 80/90/56 78/89/56 77/59/56 79/61/56
f 82/91/57 80/90/57 79/61/57 81/63/57
f 84/92/58 82/91/58 81/63/58 83/65/58
f 86/93/59 84/92/59 83/65/59 85/67/59
f 88/94/60 86/93/60 85/67/60 87/36/60
f 90/95/61 88/94/61 87/36/61 89/35/61
f 92/96/62 90/95/62 89/35/62 91/43/62
f 94/97/63 92/96/63 91/43/63 93/47/63
f 96/98/64 94/97/64 93/47/64 95/34/64
f 33/70/65 96/98/65 95/34/65 34/33/65
f 1/2/66 2/1/66 35/54/66 34/33/66
f 97/99/67 98/100/67 130/101/67 129/102/67
f 56/78/68 58/79/68 109/103/68 108/104/68
f 74/87/69 76/88/69 118/105/69 117/106/69
f 92/96/70 94/97/70 127/107/70 126/108/70
f 48/74/71 50/75/71 105/109/71 104/110/71
f 66/83/72 68/84/72 114/111/72 113/112/72
f 84/92/73 86/93/73 123/113/73 122/114/73
f 40/40/74 42/71/74 101/115/74 100/41/74
f 58/79/75 60/80/75 110/116/75 109/103/75
f 76/88/76 78/89/76 119/117/76 118/105/76
f 94/97/77 96/98/77 128/118/77 127/107/77
f 50/75/78 52/76/78 106/119/78 105/109/78
f 68/84/79 70/85/79 115/120/79 114/111/79
f 86/93/80 88/94/80 124/121/80 123/113/80
f 96/98/81 33/70/81 97/99/81 128/118/81
f 42/71/82 44/72/82 102/122/82 101/115/82
f 60/80/83 62/81/83 111/123/83 110/116/83
f 78/89/84 80/90/84 120/124/84 119/117/84
f 33/70/85 36/69/85 98/100/85 97/99/85
f 52/76/86 54/77/86 107/125/86 106/119/86
f 70/85/87 72/86/87 116/126/87 115/120/87
f 88/94/88 90/95/88 125/127/88 124/121/88
f 44/72/89 46/73/89 103/128/89 102/122/89
f 62/81/90 64/82/90 112/129/90 111/123/90
f 80/90/91 82/91/91 121/130/91 120/124/91
f 36/69/92 38/39/92 99/42/92 98/100/92
f 54/77/93 56/78/93 108/104/93 107/125/93
f 72/86/94 74/87/94 117/106/94 116/126/94
f 90/95/95 92/96/95 126/108/95 125/127/95
f 46/73/96 48/74/96 104/110/96 103/128/96
f 64/82/97 66/83/97 113/112/97 112/129/97
f 82/91/98 84/92/98 122/114/98 121/130/98
f 130/101/99 131/131/99 132/132/99 133/133/99 134/134/99 135/135/99 136/136/99 137/137/99 138/138/99 139/139/99 140/140/99 141/141/99 142/142/99 143/143/99 144/144/99 145/145/99 146/146/99 147/147/99 148/148/99 149/149/99 150/150/99 151/151/99 152/152/99 153/153/99 154/154/99 155/155/99 156/156/99 157/157/99 158/158/99 159/159/99 160/160/99 129/102/99
f 124/121/100 125/127/100 157/157/100 156/156/100
f 111/123/101 112/129/101 144/144/101 143/143/101
f 98/100/102 99/42/102 131/131/102 130/101/102
f 125/127/103 126/108/103 158/158/103 157/157/103
f 112/129/104 113/112/104 145/145/104 144/144/104
f 99/42/105 100/41/105 132/132/105 131/131/105
f 126/108/106 127/107/106 159/159/106 158/158/106
f 113/112/107 114/111/107 146/146/107 145/145/107
f 100/41/108 101/115/108 133/133/108 132/132/108
f 127/107/109 128/118/109 160/160/109 159/159/109
f 114/111/110 115/120/110 147/147/110 146/146/110
f 101/115/111 102/122/111 134/134/111 133/133/111
f 128/118/112 97/99/112 129/102/112 160/160/112
f 115/120/113 116/126/113 148/148/113 147/147/113
f 102/122/114 103/128/114 135/135/114 134/134/114
f 116/126/115 117/106/115 149/149/115 148/148/115
f 103/128/116 104/110/116 136/136/116 135/135/116
f 117/106/117 118/105/117 150/150/117 149/149/117
f 104/110/118 105/109/118 137/137/118 136/136/118
f 118/105/119 119/117/119 151/151/119 150/150/119
f 105/109/120 106/119/120 138/138/120 137/137/120
f 119/117/121 120/124/121 152/152/121 151/151/121
f 106/119/122 107/125/122 139/139/122 138/138/122
f 120/124/123 121/130/123 153/153/123 152/152/123
f 107/125/124 108/104/124 140/140/124 139/139/124
f 121/130/125 122/114/125 154/154/125 153/153/125
f 108/104/126 109/103/126 141/141/126 140/140/126
f 122/114/127 123/113/127 155/155/127 154/154/127
f 109/103/128 110/116/128 142/142/128 141/141/128
f 123/113/129 124/121/129 156/156/129 155/155/129
f 110/116/130 111/123/130 143/143/130 142/142/130
